<svg width="191" height="37" viewBox="0 0 191 37" fill="none" xmlns="http://www.w3.org/2000/svg">
<path d="M18.9509 5.2C20.4176 5.38667 21.6443 6.14666 22.6309 7.48C22.2843 7.98667 21.9109 8.36 21.5109 8.6C21.1376 8.81333 20.6709 8.93333 20.1109 8.96C17.7909 8.98666 15.8043 9.08 14.1509 9.24C12.5243 9.4 10.7909 9.93333 8.95094 10.84C7.1376 11.7467 6.11094 13.2 5.87094 15.2C5.15094 16.6667 4.79094 18.3867 4.79094 20.36C4.79094 21.3733 4.91094 22.6667 5.15094 24.24C5.47094 26.2667 6.47094 27.28 8.15094 27.28C8.5776 27.28 8.91094 27.2533 9.15094 27.2C10.5643 26.96 11.9776 26.4267 13.3909 25.6C14.1909 25.0933 14.9909 24.52 15.7909 23.88C16.5909 23.2133 17.0709 22.8267 17.2309 22.72L18.2709 21.88C18.5643 21.6133 18.7776 21.3733 18.9109 21.16C19.0709 20.92 19.1509 20.6267 19.1509 20.28C19.1509 20.1467 19.1243 19.9467 19.0709 19.68C18.1643 19.76 16.8309 19.8533 15.0709 19.96L13.9109 20.04C13.4043 20.0933 12.6443 20.1467 11.6309 20.2C10.5376 20.2 9.67094 19.9467 9.03094 19.44C8.4176 18.9067 7.9376 18.04 7.59094 16.84C7.67094 16.7867 7.76427 16.7067 7.87094 16.6C7.9776 16.4933 8.07094 16.44 8.15094 16.44L9.55094 16.28C12.6176 15.9067 14.9509 15.68 16.5509 15.6C17.8576 15.52 19.3776 15.6267 21.1109 15.92C23.5109 16.32 24.7109 17.4267 24.7109 19.24C24.7109 19.9067 24.5776 20.6 24.3109 21.32C24.1776 21.72 23.9643 22.1867 23.6709 22.72C23.0576 24.0267 22.2176 25.16 21.1509 26.12C20.0843 27.08 18.7909 28 17.2709 28.88C16.0709 29.6 15.0176 30.16 14.1109 30.56C13.2043 30.96 12.2443 31.2 11.2309 31.28C10.9909 31.3067 10.6176 31.32 10.1109 31.32C7.79094 31.32 5.68427 30.5333 3.79094 28.96C2.8576 28.16 2.1376 27.3067 1.63094 26.4C1.15094 25.4667 0.870938 24.4133 0.790938 23.24C0.737604 22.44 0.710938 21.88 0.710938 21.56C0.710938 20.04 0.897604 18.6267 1.27094 17.32C1.64427 15.9867 2.35094 13.92 3.39094 11.12C4.43094 8.85333 6.11094 7.26666 8.43094 6.36C10.7509 5.42666 13.2043 4.96 15.7909 4.96C16.8843 4.96 17.9376 5.04 18.9509 5.2ZM112.632 16.72L114.072 16.52C115.112 16.36 115.819 16.2667 116.192 16.24L117.152 16.16C117.472 16.1333 117.872 16.1067 118.352 16.08C118.832 16.0533 119.379 16.04 119.992 16.04C120.579 16.04 121.006 16.0533 121.272 16.08C122.206 16.16 122.886 16.4667 123.312 17C123.766 17.5333 124.032 18.3333 124.112 19.4C124.006 19.4 123.846 19.3867 123.632 19.36C123.419 19.3333 123.246 19.3067 123.112 19.28C122.366 19.1467 121.686 19.08 121.072 19.08C120.352 19.08 119.659 19.1733 118.992 19.36C117.286 19.8933 115.099 20.4533 112.432 21.04C111.926 21.1733 111.526 21.3867 111.232 21.68C110.966 21.9467 110.792 22.3333 110.712 22.84C110.552 23.8533 110.352 24.8667 110.112 25.88C109.926 26.8133 109.779 27.5867 109.672 28.2C109.646 28.4133 109.632 28.6933 109.632 29.04C109.632 29.36 109.632 29.5867 109.632 29.72C110.059 29.8 110.499 29.84 110.952 29.84C111.832 29.84 112.912 29.6667 114.192 29.32C116.539 28.76 118.899 28.16 121.272 27.52L125.672 26.4C127.059 26.0533 128.152 25.7467 128.952 25.48C130.686 25 131.939 24.6667 132.712 24.48C133.032 24.4267 133.272 24.4 133.432 24.4C134.099 24.4 134.539 24.6667 134.752 25.2C134.832 25.3867 134.872 25.5733 134.872 25.76C134.872 26.08 134.766 26.3867 134.552 26.68C134.339 26.9733 134.046 27.2133 133.672 27.4C133.166 27.6133 132.472 27.84 131.592 28.08C129.032 28.8267 126.766 29.5333 124.792 30.2C120.952 31.4267 118.099 32.2933 116.232 32.8C115.486 33.0133 114.366 33.2 112.872 33.36L111.392 33.56C110.486 33.6667 109.672 33.36 108.952 32.64L108.232 31.92C107.352 31.0933 106.672 30.3733 106.192 29.76C105.846 29.3067 105.699 28.68 105.752 27.88C105.832 26.9467 106.006 25.52 106.272 23.6L106.432 22.32L106.552 21.12C105.752 20.88 105.126 20.5867 104.672 20.24C104.246 19.8667 104.019 19.28 103.992 18.48C104.846 18.3733 105.486 18.32 105.912 18.32C106.392 18.2933 106.779 18.1733 107.072 17.96C107.366 17.7467 107.592 17.4 107.752 16.92C108.046 15.96 108.539 14.5467 109.232 12.68C109.446 11.9867 109.712 11.2133 110.032 10.36C110.166 9.93333 110.259 9.4 110.312 8.76C110.312 8.28 110.419 7.90667 110.632 7.64C110.872 7.34667 111.246 7.12 111.752 6.96C114.179 6.21333 117.339 5.64 121.232 5.24C122.512 5.10667 123.779 5.06667 125.032 5.12C126.792 5.12 128.099 5.78666 128.952 7.12C129.192 7.44 129.312 7.86667 129.312 8.4C129.312 8.64 129.286 8.81333 129.232 8.92C129.072 9.29333 128.832 9.61333 128.512 9.88C128.219 10.12 127.846 10.24 127.392 10.24L125.832 10.28C125.086 10.3333 124.539 10.36 124.192 10.36C123.446 10.36 122.939 10.2267 122.672 9.96C122.299 9.58667 121.832 9.4 121.272 9.4C121.112 9.4 120.846 9.42667 120.472 9.48L116.512 10.4L114.912 10.8L112.632 16.72Z" fill="#13A1FF"/>
<path d="M49.9188 10.56C50.0788 11.7067 50.2388 13.3733 50.3988 15.56L50.4788 17.64C50.4788 21.5067 50.9854 24.96 51.9988 28C52.1321 28.4267 52.1988 28.9733 52.1988 29.64C52.1988 30.0133 52.1721 30.52 52.1188 31.16C52.0921 31.5867 51.9321 31.92 51.6388 32.16C51.3454 32.4267 50.9721 32.56 50.5188 32.56C50.4654 32.56 50.3188 32.5333 50.0788 32.48C49.4121 32.32 48.9054 32.0267 48.5588 31.6C48.2121 31.1467 48.0388 30.6 48.0388 29.96C48.0388 29.7467 48.0521 29.5867 48.0788 29.48C48.0788 29.32 48.0788 29.0933 48.0788 28.8C48.0788 28.32 48.0521 27.88 47.9988 27.48C47.7854 26.44 47.4521 25.0533 46.9988 23.32C46.8388 22.6 46.5054 22.24 45.9988 22.24C45.8121 22.24 45.5988 22.28 45.3588 22.36C44.5321 22.6 43.7988 22.8267 43.1588 23.04C42.5454 23.2533 41.9988 23.4267 41.5188 23.56L39.5988 24.12C38.5054 24.44 37.4921 24.6933 36.5588 24.88C35.5721 25.0933 34.8521 25.64 34.3988 26.52C33.9721 27.32 33.3588 28.4 32.5588 29.76C32.0521 30.6667 31.3854 31.12 30.5588 31.12C30.1588 31.12 29.7588 31.0267 29.3587 30.84C28.9854 30.6267 28.6654 30.36 28.3988 30.04C27.9988 29.5867 27.7988 29.1467 27.7988 28.72C27.7988 28.4267 27.8788 28.12 28.0387 27.8L30.7988 22.2C33.8388 16.0133 35.6521 12.3067 36.2388 11.08C37.9188 7.82667 40.1988 5.58666 43.0788 4.36C43.6921 4.06667 44.3188 3.92 44.9588 3.92C45.7588 3.92 46.4921 4.13333 47.1588 4.56C47.8521 4.96 48.3854 5.53333 48.7587 6.28C49.2921 7.37333 49.6788 8.8 49.9188 10.56ZM36.9987 20.68C40.6521 20.04 43.7588 19.52 46.3188 19.12C46.2654 16.56 46.1854 14.5467 46.0788 13.08C45.9988 11.5867 45.8121 10.0933 45.5188 8.6C44.1054 8.76 43.0388 9.45333 42.3188 10.68C41.0654 12.6533 39.8654 14.6933 38.7188 16.8C38.5321 17.1467 38.1854 17.92 37.6788 19.12L36.9987 20.68ZM147.232 24.24C147.099 24.1333 146.925 23.9467 146.712 23.68C146.525 23.3867 146.365 23.16 146.232 23L149.432 21.48L150.432 21C151.019 20.7333 151.459 20.52 151.752 20.36C153.619 19.2133 155.499 18.0133 157.392 16.76C157.952 16.36 158.499 15.8 159.032 15.08C159.432 14.44 159.645 13.9333 159.672 13.56C159.725 12.8933 159.259 12.3467 158.272 11.92C157.472 11.5733 156.419 11.2133 155.112 10.84C153.539 10.3867 151.885 9.98667 150.152 9.64C149.725 9.58667 149.379 9.56 149.112 9.56C148.659 9.56 148.285 9.61333 147.992 9.72C146.685 10.2 145.619 10.4533 144.792 10.48C144.205 10.48 143.592 10.36 142.952 10.12C142.499 9.42667 142.272 8.8 142.272 8.24C142.272 7.6 142.579 7.12 143.192 6.8C144.339 6.21333 145.285 5.97333 146.032 6.08C148.939 6.50667 151.605 7.06667 154.032 7.76C156.459 8.42667 158.739 9.34667 160.872 10.52C161.405 10.8133 161.885 11.2 162.312 11.68C162.765 12.16 163.312 12.8267 163.952 13.68C164.165 14.0267 164.285 14.3733 164.312 14.72C164.365 15.28 164.099 15.8933 163.512 16.56C162.579 17.6267 161.205 18.7333 159.392 19.88C158.592 20.3867 157.885 20.8133 157.272 21.16C156.685 21.5067 156.192 21.8 155.792 22.04L153.992 23.12C153.672 23.3067 153.259 23.5333 152.752 23.8C152.832 23.9867 152.965 24.2933 153.152 24.72C153.365 25.1467 153.565 25.52 153.752 25.84C155.619 29.0133 158.299 31.2533 161.792 32.56C163.152 33.0667 164.005 33.4 164.352 33.56C164.672 33.72 164.912 33.8667 165.072 34C165.259 34.16 165.352 34.36 165.352 34.6C165.352 34.7333 165.312 34.88 165.232 35.04C165.099 35.44 164.819 35.64 164.392 35.64C164.259 35.64 164.125 35.6267 163.992 35.6C163.885 35.5733 163.792 35.5467 163.712 35.52C159.605 34.7733 155.939 32.8267 152.712 29.68C151.885 28.88 150.979 27.8933 149.992 26.72C149.539 26.1867 148.952 25.6533 148.232 25.12L147.232 24.24ZM139.352 17.48C139.379 17.4 139.459 16.9467 139.592 16.12C139.592 15.96 139.619 15.6933 139.672 15.32C140.205 14.8667 140.752 14.64 141.312 14.64C141.845 14.64 142.512 14.84 143.312 15.24C143.632 15.4 143.885 15.6267 144.072 15.92C144.259 16.2133 144.352 16.5333 144.352 16.88C144.352 17.0933 144.312 17.32 144.232 17.56C144.125 17.96 143.872 18.64 143.472 19.6L142.952 21.04L142.512 22.36C142.379 22.8133 142.059 23.7867 141.552 25.28C141.072 26.7733 140.659 28.1733 140.312 29.48C140.152 30.0933 139.885 30.5733 139.512 30.92C139.165 31.24 138.685 31.48 138.072 31.64C137.805 31.72 137.552 31.76 137.312 31.76C136.912 31.76 136.605 31.6267 136.392 31.36C136.205 31.0933 136.125 30.7067 136.152 30.2C136.285 28.1733 136.592 26.3733 137.072 24.8C137.339 23.9467 137.779 22.5067 138.392 20.48C138.499 20.1333 138.632 19.72 138.792 19.24C138.979 18.7333 139.165 18.1467 139.352 17.48Z" fill="#FF6200"/>
<path d="M59.3078 21.64C60.3745 18.52 61.4678 15.4933 62.5878 12.56L63.5478 9.92C62.7478 9.84 62.3478 9.53333 62.3478 9C62.3478 8.81333 62.3878 8.62667 62.4678 8.44C63.1078 7 63.6278 5.94667 64.0278 5.28C64.6145 4.29333 65.1878 3.4 65.7478 2.6L66.8278 0.959999C67.2545 0.853332 67.5611 0.799999 67.7478 0.799999C68.0945 0.799999 68.4278 0.853332 68.7478 0.959999C69.0945 1.06667 69.4278 1.2 69.7478 1.36C70.0945 1.49333 70.3745 1.6 70.5878 1.68C71.2545 1.97333 71.5878 2.49333 71.5878 3.24C71.5878 3.58667 71.5345 3.92 71.4278 4.24C70.9745 5.70667 70.2145 7.88 69.1478 10.76L67.3478 15.44C65.9611 19.0133 64.9478 21.6933 64.3078 23.48C63.9345 24.6 63.6278 25.8133 63.3878 27.12C63.1745 28.4267 63.0411 29.2 62.9878 29.44C62.9345 29.8133 62.9078 30.0533 62.9078 30.16C62.9078 30.56 63.0145 30.8533 63.2278 31.04C63.4678 31.2267 63.8545 31.3733 64.3878 31.48C65.2411 31.6133 66.2945 31.68 67.5478 31.68C71.7078 31.6267 75.7878 30.9867 79.7878 29.76C79.8145 29.7867 79.8411 29.8 79.8678 29.8C79.8945 29.8 79.9211 29.8267 79.9478 29.88L80.3878 31.2C79.7745 31.92 79.0545 32.4667 78.2278 32.84C77.4278 33.2133 76.4145 33.56 75.1878 33.88C74.2278 34.1467 73.2678 34.32 72.3078 34.4C71.3745 34.5067 70.0545 34.6 68.3478 34.68C68.0811 34.7067 67.6945 34.72 67.1878 34.72C66.0678 34.72 64.9611 34.64 63.8678 34.48C62.3745 34.2667 60.8545 33.5467 59.3078 32.32C58.1078 31.3067 57.5078 30.0933 57.5078 28.68C57.5078 28.2 57.5611 27.76 57.6678 27.36C58.1745 25.2 58.7211 23.2933 59.3078 21.64ZM169.955 13.08C169.528 11.96 169.235 11.16 169.075 10.68C168.942 10.2 168.875 9.72 168.875 9.24C168.875 8.89333 168.915 8.44 168.995 7.88C169.102 7.32 169.235 6.69333 169.395 6L170.155 5.96C170.342 5.96 170.502 6 170.635 6.08L171.315 6.6C172.115 7.26667 172.715 7.82667 173.115 8.28C173.515 8.73333 173.795 9.36 173.955 10.16C174.302 11.7867 174.702 13.2267 175.155 14.48C175.635 15.7333 176.315 16.8667 177.195 17.88C177.835 18.6267 178.395 19.1867 178.875 19.56C179.382 19.9067 180.048 20.0667 180.875 20.04C181.275 19.24 181.568 18.6267 181.755 18.2L182.835 15.56C184.808 10.76 186.048 7.78667 186.555 6.64C186.768 6.13333 187.155 5.49333 187.715 4.72C187.848 4.56 188.022 4.32 188.235 4C189.115 4.34667 189.782 4.86667 190.235 5.56C190.715 6.22667 190.955 7 190.955 7.88C190.955 8.46667 190.862 9.02667 190.675 9.56C190.222 10.8667 189.475 12.6 188.435 14.76C188.248 15.16 188.062 15.52 187.875 15.84C187.715 16.16 187.568 16.4533 187.435 16.72C186.848 17.84 186.502 18.5067 186.395 18.72L185.315 21.12C184.488 23.0933 183.728 24.6533 183.035 25.8L182.475 26.68C181.142 28.8667 179.968 30.6533 178.955 32.04C177.968 33.4533 176.782 34.7867 175.395 36.04C175.342 35.8533 175.248 35.6267 175.115 35.36C175.008 35.12 174.968 34.9467 174.995 34.84C175.848 32.68 177.155 29.44 178.915 25.12C179.048 24.7733 179.302 24.0267 179.675 22.88C174.848 20.8533 171.608 17.5867 169.955 13.08Z" fill="#FF61E5"/>
<path d="M91.5828 29.92C92.3028 29.7867 93.7961 29.48 96.0628 29L99.1428 28.36C99.4895 28.7067 99.7828 29.0133 100.023 29.28C100.263 29.5467 100.383 29.7733 100.383 29.96C100.383 30.1733 100.276 30.3867 100.063 30.6C99.8495 30.8133 99.4228 31.16 98.7828 31.64C98.7028 31.6933 98.6095 31.7867 98.5028 31.92C98.4228 32.0533 98.3295 32.1333 98.2228 32.16L97.1428 32.44C96.2361 32.7067 95.4228 32.9067 94.7028 33.04C94.0095 33.2 93.3028 33.28 92.5828 33.28C90.0228 33.28 87.9295 32.52 86.3028 31C85.6895 30.44 85.2095 29.88 84.8628 29.32C84.5428 28.7333 84.3828 28.1067 84.3828 27.44C84.3828 27.1467 84.3961 26.9333 84.4228 26.8C84.8495 24.16 85.3295 21.92 85.8628 20.08C86.4228 18.0533 87.4361 14.6133 88.9028 9.76C89.2228 8.61333 89.7295 6.89333 90.4228 4.6C90.6095 3.98667 90.8628 3.56 91.1828 3.32C91.5295 3.08 92.0228 2.98667 92.6628 3.04C92.7961 3.04 92.9161 3.05333 93.0228 3.08C93.1561 3.10666 93.2895 3.12 93.4228 3.12C95.0761 3.25333 95.9028 4.05333 95.9028 5.52C95.9028 5.89333 95.8495 6.28 95.7428 6.68C95.5295 7.53333 95.1295 8.68 94.5428 10.12C92.3828 15.6133 90.7161 20.9067 89.5428 26C89.3828 26.64 89.3028 27.3067 89.3028 28C89.3028 29.3067 89.8761 29.96 91.0228 29.96C91.2628 29.96 91.4495 29.9467 91.5828 29.92Z" fill="#35A402"/>
</svg>
