<svg width="25" height="25" viewBox="0 0 25 25" fill="none" xmlns="http://www.w3.org/2000/svg">
<path d="M24.6079 9.55942C24.859 9.27816 25 8.8969 25 8.49938C25 8.10187 24.859 7.72061 24.6079 7.43934L18.3518 0.439083C18.2274 0.299876 18.0797 0.189452 17.9172 0.114114C17.7546 0.0387758 17.5804 1.46678e-09 17.4045 0C17.2285 -1.46678e-09 17.0543 0.0387758 16.8917 0.114114C16.7292 0.189452 16.5815 0.299876 16.4571 0.439083C16.3327 0.578289 16.234 0.743551 16.1667 0.925433C16.0993 1.10732 16.0647 1.30225 16.0647 1.49912C16.0647 1.69599 16.0993 1.89093 16.1667 2.07281C16.234 2.25469 16.3327 2.41996 16.4571 2.55916L20.4235 6.99933H7.57519C7.47032 6.99933 7.36843 7.012 7.26953 7.03733C5.21479 7.26009 3.3152 8.35809 1.96373 10.1042C0.61227 11.8503 -0.0876442 14.1109 0.00879097 16.4182C0.105226 18.7256 0.99063 20.9032 2.48183 22.5006C3.97303 24.0979 5.95592 24.9928 8.02026 25H11.0661C11.4217 25 11.7626 24.842 12.0141 24.5606C12.2655 24.2793 12.4067 23.8978 12.4067 23.4999C12.4067 23.1021 12.2655 22.7206 12.0141 22.4392C11.7626 22.1579 11.4217 21.9999 11.0661 21.9999H8.02026C7.31606 21.9999 6.61876 21.8447 5.96816 21.5431C5.31757 21.2416 4.72642 20.7996 4.22848 20.2425C3.73053 19.6853 3.33554 19.0238 3.06606 18.2958C2.79657 17.5679 2.65787 16.7876 2.65787 15.9997C2.65787 15.2117 2.79657 14.4315 3.06606 13.7035C3.33554 12.9755 3.73053 12.314 4.22848 11.7569C4.72642 11.1997 5.31757 10.7577 5.96816 10.4562C6.61876 10.1546 7.31606 9.99944 8.02026 9.99944H20.4235L16.4571 14.4396C16.3327 14.5788 16.234 14.7441 16.1667 14.926C16.0993 15.1078 16.0647 15.3028 16.0647 15.4996C16.0647 15.6965 16.0993 15.8915 16.1667 16.0733C16.234 16.2552 16.3327 16.4205 16.4571 16.5597C16.5815 16.6989 16.7292 16.8093 16.8917 16.8847C17.0543 16.96 17.2285 16.9988 17.4045 16.9988C17.5804 16.9988 17.7546 16.96 17.9172 16.8847C18.0797 16.8093 18.2274 16.6989 18.3518 16.5597L24.6079 9.55942Z" fill="#B2B2B2"/>
</svg>
