<svg width="25" height="25" viewBox="0 0 25 25" fill="none" xmlns="http://www.w3.org/2000/svg">
<path opacity="0.3" d="M0.392063 9.55942C0.141012 9.27816 0 8.8969 0 8.49938C0 8.10187 0.141012 7.72061 0.392063 7.43934L6.64819 0.439083C6.7726 0.299876 6.92029 0.189452 7.08284 0.114114C7.24539 0.0387758 7.41961 1.46678e-09 7.59555 0C7.77149 -1.46678e-09 7.9457 0.0387758 8.10825 0.114114C8.2708 0.189452 8.41849 0.299876 8.5429 0.439083C8.66731 0.578289 8.766 0.743551 8.83333 0.925433C8.90066 1.10732 8.93531 1.30225 8.93531 1.49912C8.93531 1.69599 8.90066 1.89093 8.83333 2.07281C8.766 2.25469 8.66731 2.41996 8.5429 2.55916L4.57652 6.99933H17.4248C17.5297 6.99933 17.6316 7.012 17.7305 7.03733C19.7852 7.26009 21.6848 8.35809 23.0363 10.1042C24.3877 11.8503 25.0876 14.1109 24.9912 16.4182C24.8948 18.7256 24.0094 20.9032 22.5182 22.5006C21.027 24.0979 19.0441 24.9928 16.9797 25H13.9339C13.5783 25 13.2374 24.842 12.9859 24.5606C12.7345 24.2793 12.5933 23.8978 12.5933 23.4999C12.5933 23.1021 12.7345 22.7206 12.9859 22.4392C13.2374 22.1579 13.5783 21.9999 13.9339 21.9999H16.9797C17.6839 21.9999 18.3812 21.8447 19.0318 21.5431C19.6824 21.2416 20.2736 20.7996 20.7715 20.2425C21.2695 19.6853 21.6645 19.0238 21.9339 18.2958C22.2034 17.5679 22.3421 16.7876 22.3421 15.9997C22.3421 15.2117 22.2034 14.4315 21.9339 13.7035C21.6645 12.9755 21.2695 12.314 20.7715 11.7569C20.2736 11.1997 19.6824 10.7577 19.0318 10.4562C18.3812 10.1546 17.6839 9.99944 16.9797 9.99944H4.57652L8.5429 14.4396C8.66731 14.5788 8.766 14.7441 8.83333 14.926C8.90066 15.1078 8.93531 15.3028 8.93531 15.4996C8.93531 15.6965 8.90066 15.8915 8.83333 16.0733C8.766 16.2552 8.66731 16.4205 8.5429 16.5597C8.41849 16.6989 8.2708 16.8093 8.10825 16.8847C7.9457 16.96 7.77149 16.9988 7.59555 16.9988C7.41961 16.9988 7.24539 16.96 7.08284 16.8847C6.92029 16.8093 6.7726 16.6989 6.64819 16.5597L0.392063 9.55942Z" fill="black"/>
</svg>
